<svg width="303" height="290" viewBox="0 0 303 290" fill="none" xmlns="http://www.w3.org/2000/svg">
<g id="Group 10">
<g id="Group 1">
<g id="Ellipse 2" filter="url(#filter0_b_127_11)">
<path d="M196.778 54.7725C250.885 74.725 279.849 132.992 259.005 184.007C238.161 235.021 172.607 259.551 118.501 239.598" stroke="#FF02B8" stroke-opacity="0.9" stroke-width="14"/>
<path d="M196.778 54.7725C250.885 74.725 279.849 132.992 259.005 184.007C238.161 235.021 172.607 259.551 118.501 239.598" stroke="url(#paint0_radial_127_11)" stroke-opacity="0.9" stroke-width="14"/>
</g>
<path id="Ellipse 6" d="M260.058 184.386C283.536 126.922 254.583 62.6346 195.378 40.8017C136.169 18.9676 66.5061 48.1526 43.0284 105.614C19.5495 163.078 48.5026 227.365 107.708 249.198C166.917 271.032 236.58 241.847 260.058 184.386Z" fill="url(#paint1_linear_127_11)" stroke="url(#paint2_radial_127_11)" stroke-width="0.5"/>
<g id="Ellipse 3">
<g filter="url(#filter1_iii_127_11)">
<path d="M249.449 180.117C270.604 128.342 244.515 70.4244 191.179 50.7558C137.843 31.0872 73.3193 57.9844 52.1646 109.76C31.01 161.536 57.0983 219.453 110.435 239.122C163.771 258.79 228.294 231.893 249.449 180.117Z" fill="#0A0C0E" fill-opacity="0.1"/>
</g>
<path d="M248.98 179.944C270.027 128.431 244.074 70.7944 190.99 51.2187C137.898 31.6404 73.6783 58.4268 52.6337 109.933C31.5864 161.446 57.5393 219.083 110.624 238.659C163.715 258.237 227.935 231.451 248.98 179.944Z" stroke="url(#paint3_linear_127_11)" stroke-opacity="0.15"/>
</g>
</g>
</g>
<defs>
<filter id="filter0_b_127_11" x="80.8536" y="13.2925" width="227.039" height="275.136" filterUnits="userSpaceOnUse" color-interpolation-filters="sRGB">
<feFlood flood-opacity="0" result="BackgroundImageFix"/>
<feGaussianBlur in="BackgroundImageFix" stdDeviation="17.5"/>
<feComposite in2="SourceAlpha" operator="in" result="effect1_backgroundBlur_127_11"/>
<feBlend mode="normal" in="SourceGraphic" in2="effect1_backgroundBlur_127_11" result="shape"/>
</filter>
<filter id="filter1_iii_127_11" x="40.818" y="40.304" width="219.977" height="209.27" filterUnits="userSpaceOnUse" color-interpolation-filters="sRGB">
<feFlood flood-opacity="0" result="BackgroundImageFix"/>
<feBlend mode="normal" in="SourceGraphic" in2="BackgroundImageFix" result="shape"/>
<feColorMatrix in="SourceAlpha" type="matrix" values="0 0 0 0 0 0 0 0 0 0 0 0 0 0 0 0 0 0 127 0" result="hardAlpha"/>
<feOffset dx="4" dy="-6"/>
<feGaussianBlur stdDeviation="2"/>
<feComposite in2="hardAlpha" operator="arithmetic" k2="-1" k3="1"/>
<feColorMatrix type="matrix" values="0 0 0 0 0.316667 0 0 0 0 0.316667 0 0 0 0 0.316667 0 0 0 0.15 0"/>
<feBlend mode="normal" in2="shape" result="effect1_innerShadow_127_11"/>
<feColorMatrix in="SourceAlpha" type="matrix" values="0 0 0 0 0 0 0 0 0 0 0 0 0 0 0 0 0 0 127 0" result="hardAlpha"/>
<feOffset dx="-4" dy="6"/>
<feGaussianBlur stdDeviation="2"/>
<feComposite in2="hardAlpha" operator="arithmetic" k2="-1" k3="1"/>
<feColorMatrix type="matrix" values="0 0 0 0 0.270833 0 0 0 0 0.270833 0 0 0 0 0.270833 0 0 0 0.15 0"/>
<feBlend mode="normal" in2="effect1_innerShadow_127_11" result="effect2_innerShadow_127_11"/>
<feColorMatrix in="SourceAlpha" type="matrix" values="0 0 0 0 0 0 0 0 0 0 0 0 0 0 0 0 0 0 127 0" result="hardAlpha"/>
<feOffset dx="-4" dy="-4"/>
<feGaussianBlur stdDeviation="2"/>
<feComposite in2="hardAlpha" operator="arithmetic" k2="-1" k3="1"/>
<feColorMatrix type="matrix" values="0 0 0 0 0.270833 0 0 0 0 0.270833 0 0 0 0 0.270833 0 0 0 0.15 0"/>
<feBlend mode="normal" in2="effect2_innerShadow_127_11" result="effect3_innerShadow_127_11"/>
</filter>
<radialGradient id="paint0_radial_127_11" cx="0" cy="0" r="1" gradientUnits="userSpaceOnUse" gradientTransform="translate(207.623 165.618) rotate(-60.6653) scale(94.6246 50.7377)">
<stop stop-color="#767676"/>
<stop offset="1" stop-color="white" stop-opacity="0"/>
</radialGradient>
<linearGradient id="paint1_linear_127_11" x1="250.711" y1="218.572" x2="11.4518" y2="28.7841" gradientUnits="userSpaceOnUse">
<stop stop-color="#FF00E6"/>
<stop offset="0.510417" stop-color="#FF6D4D"/>
<stop offset="1" stop-color="#F8E0CA"/>
</linearGradient>
<radialGradient id="paint2_radial_127_11" cx="0" cy="0" r="1" gradientUnits="userSpaceOnUse" gradientTransform="translate(18.8173 27.7547) rotate(42.8515) scale(166.688 131.546)">
<stop stop-color="#343434"/>
<stop offset="1" stop-color="#A4A4A4" stop-opacity="0"/>
</radialGradient>
<linearGradient id="paint3_linear_127_11" x1="-85.0502" y1="171.447" x2="206.375" y2="180.08" gradientUnits="userSpaceOnUse">
<stop stop-color="#FF5E2C" stop-opacity="0.25"/>
<stop offset="1" stop-color="white" stop-opacity="0"/>
</linearGradient>
</defs>
</svg>
