<svg width="113" height="107" viewBox="0 0 113 107" fill="none" xmlns="http://www.w3.org/2000/svg">
<g id="Shape" filter="url(#filter0_d_127_16)">
<path fill-rule="evenodd" clip-rule="evenodd" d="M103.963 56.5651C109.449 46.4399 101.617 37.5905 89.5636 29.5293L98.7281 16.3613L88.8981 10.8184L79.9753 23.6396C77.3949 22.1837 74.7254 20.7359 72.0722 19.2988L81.056 6.39389L71.235 0.853906L62.0692 14.016C59.917 12.8514 57.8053 11.7051 55.7674 10.5571L55.7945 10.5156L42.244 2.86699L36.2885 11.4289C36.2885 11.4289 43.6235 15.4092 43.427 15.4501C47.4066 17.6962 47.3932 20.3127 46.635 22.1507L36.1952 37.1521C36.469 37.3083 36.8208 37.5197 37.195 37.7939L36.1592 37.2104L21.5274 58.2229C20.6416 59.1461 18.7714 60.3599 15.9878 58.7953C16.0503 58.957 8.8458 54.7646 8.8458 54.7646L0.230308 63.238L13.0213 70.4516C14.4646 71.2677 15.886 72.0871 17.2918 72.8975C18.2023 73.4224 19.1063 73.9435 20.0054 74.4575L10.7395 87.7801L20.5545 93.3182L29.7284 80.1419C32.3889 81.7067 34.985 83.1954 37.5327 84.6298L28.3995 97.7437L38.2265 103.286L47.4823 89.9932C64.5407 98.5385 78.4692 101.667 88.7053 89.8231C96.9563 80.2876 94.2475 72.4275 86.1489 65.2985C93.4948 66.1407 99.9586 63.9805 103.96 56.5642L103.963 56.5651ZM70.3901 77.2853C64.0348 86.4217 46.5789 76.295 38.5991 71.6657L38.5988 71.6655C37.8843 71.251 37.2458 70.8806 36.6981 70.572L48.9817 52.9282C49.651 53.3059 50.475 53.7489 51.4084 54.2506L51.4085 54.2507C59.7631 58.7422 76.8846 67.9467 70.3931 77.2862L70.3901 77.2853ZM56.2118 45.7799C62.8651 49.6577 77.3676 58.1102 83.1469 49.8123C89.0574 41.3227 74.7618 33.6841 67.7801 29.9535C66.9952 29.5341 66.3027 29.1641 65.7418 28.8479L54.6029 44.851C55.0658 45.1121 55.6063 45.4271 56.2118 45.7799Z" fill="#C8C8C8"/>
</g>
<defs>
<filter id="filter0_d_127_16" x="0.230347" y="0.28981" width="111.824" height="106.432" filterUnits="userSpaceOnUse" color-interpolation-filters="sRGB">
<feFlood flood-opacity="0" result="BackgroundImageFix"/>
<feColorMatrix in="SourceAlpha" type="matrix" values="0 0 0 0 0 0 0 0 0 0 0 0 0 0 0 0 0 0 127 0" result="hardAlpha"/>
<feOffset dx="4.30769" dy="1.4359"/>
<feGaussianBlur stdDeviation="1"/>
<feComposite in2="hardAlpha" operator="out"/>
<feColorMatrix type="matrix" values="0 0 0 0 0 0 0 0 0 0 0 0 0 0 0 0 0 0 0.32 0"/>
<feBlend mode="normal" in2="BackgroundImageFix" result="effect1_dropShadow_127_16"/>
<feBlend mode="normal" in="SourceGraphic" in2="effect1_dropShadow_127_16" result="shape"/>
</filter>
</defs>
</svg>
