<svg width="42" height="42" viewBox="0 0 42 42" fill="none" xmlns="http://www.w3.org/2000/svg">
<path d="M14.6311 1.3814C10.4346 2.83719 6.81562 5.60032 4.30562 9.26494C1.79562 12.9296 0.526938 17.3025 0.685917 21.7414C0.844897 26.1804 2.42316 30.4514 5.18889 33.927C7.95462 37.4027 11.762 39.8999 16.0519 41.0517C19.5297 41.9491 23.1735 41.9885 26.67 41.1666C29.8374 40.4551 32.7658 38.9332 35.1684 36.75C37.669 34.4083 39.4841 31.4294 40.4184 28.1334C41.4337 24.5492 41.6144 20.78 40.9467 17.115H21.4167V25.2164H32.7272C32.5011 26.5085 32.0167 27.7417 31.303 28.8423C30.5892 29.9428 29.6607 30.8881 28.5731 31.6214C27.1922 32.5353 25.6352 33.1501 24.0023 33.4261C22.3648 33.7306 20.6852 33.7306 19.0477 33.4261C17.3878 33.0833 15.8177 32.3983 14.4375 31.4147C12.2199 29.8449 10.5547 27.6147 9.67968 25.0425C8.7901 22.422 8.7901 19.5812 9.67968 16.9608C10.3026 15.124 11.3322 13.4516 12.6919 12.0684C14.2478 10.4565 16.2177 9.3043 18.3854 8.73821C20.553 8.17213 22.8347 8.21405 24.9802 8.85937C26.6562 9.37362 28.1889 10.2725 29.4558 11.4844C30.7311 10.2156 32.0042 8.94359 33.2752 7.66827C33.9314 6.98249 34.6467 6.32952 35.2931 5.62734C33.3589 3.82763 31.0887 2.42715 28.6125 1.50609C24.1031 -0.13129 19.169 -0.175292 14.6311 1.3814Z" fill="white"/>
</svg>
